<mxfile host="app.diagrams.net" agent="Mozilla/5.0 (Windows NT 10.0; Win64; x64) AppleWebKit/537.36 (KHTML, like Gecko) Chrome/122.0.0.0 Safari/537.36" version="26.0.16">
  <diagram name="PÃ¡gina-1" id="XyYKN0ZAjmkfkA3X4Y2C">
    <mxGraphModel dx="1615" dy="803" grid="1" gridSize="10" guides="1" tooltips="1" connect="1" arrows="1" fold="1" page="1" pageScale="1" pageWidth="1169" pageHeight="827" math="0" shadow="0">
      <root>
        <mxCell id="0" />
        <mxCell id="1" parent="0" />
        <mxCell id="vZFhzg8tqOsq6OJPj7OW-1" value="Arquitectura de nube" style="swimlane;" vertex="1" parent="1">
          <mxGeometry x="40" y="40" width="800" height="550" as="geometry" />
        </mxCell>
        <mxCell id="vZFhzg8tqOsq6OJPj7OW-5" style="edgeStyle=orthogonalEdgeStyle;rounded=0;orthogonalLoop=1;jettySize=auto;html=1;entryX=0;entryY=0.5;entryDx=0;entryDy=0;" edge="1" parent="vZFhzg8tqOsq6OJPj7OW-1" source="vZFhzg8tqOsq6OJPj7OW-2" target="vZFhzg8tqOsq6OJPj7OW-3">
          <mxGeometry relative="1" as="geometry" />
        </mxCell>
        <mxCell id="vZFhzg8tqOsq6OJPj7OW-21" style="edgeStyle=orthogonalEdgeStyle;rounded=0;orthogonalLoop=1;jettySize=auto;html=1;" edge="1" parent="vZFhzg8tqOsq6OJPj7OW-1" source="vZFhzg8tqOsq6OJPj7OW-2" target="vZFhzg8tqOsq6OJPj7OW-7">
          <mxGeometry relative="1" as="geometry" />
        </mxCell>
        <mxCell id="vZFhzg8tqOsq6OJPj7OW-2" value="" style="shape=actor;whiteSpace=wrap;html=1;" vertex="1" parent="vZFhzg8tqOsq6OJPj7OW-1">
          <mxGeometry x="80" y="66" width="40" height="60" as="geometry" />
        </mxCell>
        <mxCell id="vZFhzg8tqOsq6OJPj7OW-6" style="edgeStyle=orthogonalEdgeStyle;rounded=0;orthogonalLoop=1;jettySize=auto;html=1;entryX=0;entryY=0.5;entryDx=0;entryDy=0;" edge="1" parent="vZFhzg8tqOsq6OJPj7OW-1" source="vZFhzg8tqOsq6OJPj7OW-3" target="vZFhzg8tqOsq6OJPj7OW-4">
          <mxGeometry relative="1" as="geometry" />
        </mxCell>
        <mxCell id="vZFhzg8tqOsq6OJPj7OW-3" value="CDN" style="rounded=1;whiteSpace=wrap;html=1;fillColor=#dae8fc;strokeColor=#6c8ebf;" vertex="1" parent="vZFhzg8tqOsq6OJPj7OW-1">
          <mxGeometry x="230" y="66" width="120" height="60" as="geometry" />
        </mxCell>
        <mxCell id="vZFhzg8tqOsq6OJPj7OW-26" style="edgeStyle=orthogonalEdgeStyle;rounded=0;orthogonalLoop=1;jettySize=auto;html=1;" edge="1" parent="vZFhzg8tqOsq6OJPj7OW-1" source="vZFhzg8tqOsq6OJPj7OW-4" target="vZFhzg8tqOsq6OJPj7OW-8">
          <mxGeometry relative="1" as="geometry" />
        </mxCell>
        <mxCell id="vZFhzg8tqOsq6OJPj7OW-4" value="S3: Static Website" style="rounded=1;whiteSpace=wrap;html=1;glass=0;fillColor=#d5e8d4;strokeColor=#82b366;" vertex="1" parent="vZFhzg8tqOsq6OJPj7OW-1">
          <mxGeometry x="435" y="66" width="120" height="60" as="geometry" />
        </mxCell>
        <mxCell id="vZFhzg8tqOsq6OJPj7OW-10" style="edgeStyle=orthogonalEdgeStyle;rounded=0;orthogonalLoop=1;jettySize=auto;html=1;entryX=0;entryY=0.5;entryDx=0;entryDy=0;" edge="1" parent="vZFhzg8tqOsq6OJPj7OW-1" source="vZFhzg8tqOsq6OJPj7OW-7" target="vZFhzg8tqOsq6OJPj7OW-8">
          <mxGeometry relative="1" as="geometry" />
        </mxCell>
        <mxCell id="vZFhzg8tqOsq6OJPj7OW-22" style="edgeStyle=orthogonalEdgeStyle;rounded=0;orthogonalLoop=1;jettySize=auto;html=1;" edge="1" parent="vZFhzg8tqOsq6OJPj7OW-1" source="vZFhzg8tqOsq6OJPj7OW-7" target="vZFhzg8tqOsq6OJPj7OW-20">
          <mxGeometry relative="1" as="geometry" />
        </mxCell>
        <mxCell id="vZFhzg8tqOsq6OJPj7OW-7" value="API Gateway" style="rounded=1;whiteSpace=wrap;html=1;fillColor=#ffe6cc;strokeColor=#d79b00;" vertex="1" parent="vZFhzg8tqOsq6OJPj7OW-1">
          <mxGeometry x="40" y="216" width="120" height="60" as="geometry" />
        </mxCell>
        <mxCell id="vZFhzg8tqOsq6OJPj7OW-11" style="edgeStyle=orthogonalEdgeStyle;rounded=0;orthogonalLoop=1;jettySize=auto;html=1;" edge="1" parent="vZFhzg8tqOsq6OJPj7OW-1" source="vZFhzg8tqOsq6OJPj7OW-8" target="vZFhzg8tqOsq6OJPj7OW-9">
          <mxGeometry relative="1" as="geometry" />
        </mxCell>
        <mxCell id="vZFhzg8tqOsq6OJPj7OW-8" value="Load Balancer" style="rounded=1;whiteSpace=wrap;html=1;fillColor=#fff2cc;strokeColor=#d6b656;" vertex="1" parent="vZFhzg8tqOsq6OJPj7OW-1">
          <mxGeometry x="435" y="216" width="120" height="60" as="geometry" />
        </mxCell>
        <mxCell id="vZFhzg8tqOsq6OJPj7OW-23" style="edgeStyle=orthogonalEdgeStyle;rounded=0;orthogonalLoop=1;jettySize=auto;html=1;" edge="1" parent="vZFhzg8tqOsq6OJPj7OW-1" source="vZFhzg8tqOsq6OJPj7OW-9" target="vZFhzg8tqOsq6OJPj7OW-13">
          <mxGeometry relative="1" as="geometry" />
        </mxCell>
        <mxCell id="vZFhzg8tqOsq6OJPj7OW-9" value="Backend Servers" style="rounded=1;whiteSpace=wrap;html=1;fillColor=#f8cecc;strokeColor=#b85450;" vertex="1" parent="vZFhzg8tqOsq6OJPj7OW-1">
          <mxGeometry x="640" y="216" width="120" height="60" as="geometry" />
        </mxCell>
        <mxCell id="vZFhzg8tqOsq6OJPj7OW-24" style="edgeStyle=orthogonalEdgeStyle;rounded=0;orthogonalLoop=1;jettySize=auto;html=1;entryX=1;entryY=0.5;entryDx=0;entryDy=0;" edge="1" parent="vZFhzg8tqOsq6OJPj7OW-1" source="vZFhzg8tqOsq6OJPj7OW-13" target="vZFhzg8tqOsq6OJPj7OW-20">
          <mxGeometry relative="1" as="geometry" />
        </mxCell>
        <mxCell id="vZFhzg8tqOsq6OJPj7OW-20" value="S3: Object Storage" style="rounded=1;whiteSpace=wrap;html=1;fillColor=#e1d5e7;strokeColor=#9673a6;" vertex="1" parent="vZFhzg8tqOsq6OJPj7OW-1">
          <mxGeometry x="40" y="416" width="120" height="60" as="geometry" />
        </mxCell>
        <mxCell id="vZFhzg8tqOsq6OJPj7OW-25" value="" style="group;fillColor=#dae8fc;gradientColor=#7ea6e0;strokeColor=#6c8ebf;" vertex="1" connectable="0" parent="vZFhzg8tqOsq6OJPj7OW-1">
          <mxGeometry x="612" y="358" width="176" height="176" as="geometry" />
        </mxCell>
        <mxCell id="vZFhzg8tqOsq6OJPj7OW-13" value="&#xa;Database Cluster&#xa;&#xa;" style="whiteSpace=wrap;html=1;aspect=fixed;fillColor=#f5f5f5;gradientColor=#b3b3b3;strokeColor=#666666;" vertex="1" parent="vZFhzg8tqOsq6OJPj7OW-25">
          <mxGeometry width="176" height="176" as="geometry" />
        </mxCell>
        <mxCell id="vZFhzg8tqOsq6OJPj7OW-14" value="" style="shape=cylinder3;whiteSpace=wrap;html=1;boundedLbl=1;backgroundOutline=1;size=15;fillColor=#dae8fc;gradientColor=#7ea6e0;strokeColor=#6c8ebf;" vertex="1" parent="vZFhzg8tqOsq6OJPj7OW-25">
          <mxGeometry x="30" y="13" width="35" height="50" as="geometry" />
        </mxCell>
        <mxCell id="vZFhzg8tqOsq6OJPj7OW-15" value="" style="shape=cylinder3;whiteSpace=wrap;html=1;boundedLbl=1;backgroundOutline=1;size=15;fillColor=#dae8fc;gradientColor=#7ea6e0;strokeColor=#6c8ebf;" vertex="1" parent="vZFhzg8tqOsq6OJPj7OW-25">
          <mxGeometry x="115" y="13" width="35" height="50" as="geometry" />
        </mxCell>
        <mxCell id="vZFhzg8tqOsq6OJPj7OW-18" value="" style="shape=cylinder3;whiteSpace=wrap;html=1;boundedLbl=1;backgroundOutline=1;size=15;fillColor=#dae8fc;gradientColor=#7ea6e0;strokeColor=#6c8ebf;" vertex="1" parent="vZFhzg8tqOsq6OJPj7OW-25">
          <mxGeometry x="28" y="113" width="35" height="50" as="geometry" />
        </mxCell>
        <mxCell id="vZFhzg8tqOsq6OJPj7OW-19" value="" style="shape=cylinder3;whiteSpace=wrap;html=1;boundedLbl=1;backgroundOutline=1;size=15;fillColor=#dae8fc;gradientColor=#7ea6e0;strokeColor=#6c8ebf;" vertex="1" parent="vZFhzg8tqOsq6OJPj7OW-25">
          <mxGeometry x="113" y="113" width="35" height="50" as="geometry" />
        </mxCell>
      </root>
    </mxGraphModel>
  </diagram>
</mxfile>
